<?xml version="1.0" encoding="UTF-8" standalone="no"?><!DOCTYPE svg PUBLIC "-//W3C//DTD SVG 1.1//EN" "http://www.w3.org/Graphics/SVG/1.1/DTD/svg11.dtd"><svg width="100%" height="100%" viewBox="0 0 1568 1797" version="1.1" xmlns="http://www.w3.org/2000/svg" xmlns:xlink="http://www.w3.org/1999/xlink" xml:space="preserve" xmlns:serif="http://www.serif.com/" style="fill-rule:evenodd;clip-rule:evenodd;stroke-linejoin:round;stroke-miterlimit:2;"><g><clipPath id="_clip1"><path d="M614.903,-90.722c-127.258,25.53 -236.033,131.442 -268.183,261.134c-14.638,59.046 -14.363,120.821 -22.471,181.196c-2.083,15.5 -4.858,31.12 -8.55,46.487l-86.758,-320.375l-228.942,-147.433l-36.437,230.875l191.85,405.871c-60.646,17.02 -127.863,22.325 -184.33,51.233c-129.07,66.087 -140.27,220.167 -113.233,348.887c31.167,148.342 54.458,289.959 131.25,422.609c44.192,76.337 99.854,145.704 165.238,203.666c172.912,153.284 413.47,224.163 637.462,180.888c189.854,-36.679 363.633,-156.463 468.934,-322.888l113.77,-61.441c196.929,-106.354 285.842,-341.213 208.713,-551.317l-53.613,-146.033c4.009,-15.513 7.471,-31.179 10.059,-47.109c17.746,-109.154 -14.396,-238.479 -110.079,-288.354c-40.446,-21.079 -86.08,-25.175 -132.105,-27.837l-24.708,-68.567l-137.396,36.646c-88.637,-50.017 -117.146,-165.529 -177.116,-249.692c-64.459,-90.458 -172.863,-144.55 -281.246,-144.554c-20.813,0 -41.613,1.996 -62.109,6.108Z" clip-rule="nonzero"/></clipPath><g clip-path="url(#_clip1)"><path d="M290.985,1463.09l-12.259,20.229c-19.237,31.742 -29.408,68.142 -29.408,105.255l-0,166.183l345.642,41.667l293.941,-25l-72.916,-245.834l-525,-62.5Z" style="fill:#5c418f;fill-rule:nonzero;"/><path d="M356.937,1595.95l104.692,19.696c78.662,14.795 159.546,13.008 237.475,-5.25l70.216,-16.45c23.221,-5.442 42.967,-20.071 55.03,-40.159l-8.367,-28.204l-525,-62.5l-12.258,20.233c-6.605,10.896 -12.113,22.355 -16.538,34.192l1.508,3.529c16.621,38.975 51.6,67.079 93.242,74.913" style="fill:#47284f;fill-rule:nonzero;"/><path d="M602.622,1777.88c-12.846,-14.342 -29.308,-29.446 -48.429,-43.596c-19.096,-14.167 -40.825,-27.362 -63.621,-38.383c-22.812,-10.992 -46.662,-19.796 -69.633,-25.929c-22.971,-6.167 -45.042,-9.659 -64.263,-10.792c35.892,14.042 81.746,31.758 125.929,53.225c44.3,21.237 86.696,46.117 120.017,65.475" style="fill:#47284f;fill-rule:nonzero;"/><path d="M792.183,1647.8c-14.658,1.654 -31.425,5.516 -48.583,11.883c-17.163,6.329 -34.692,15.154 -50.971,25.908c-16.259,10.779 -31.229,23.467 -43.767,36.788c-12.567,13.312 -22.671,27.233 -29.925,40.079c21.725,-20 50.129,-44.583 81.442,-65.154c31.179,-20.784 64.904,-37.321 91.804,-49.504" style="fill:#47284f;fill-rule:nonzero;"/><path d="M614.968,735.275l184.754,27.075l236.408,87.195l-15.625,205.905l-97.221,-23.613l-83.721,247.892c-14.958,44.291 -13.079,92.541 5.279,135.533c15.234,35.679 12.292,76.517 -7.895,109.642l-9.609,15.766c-8.046,13.209 -21.329,22.342 -36.55,25.109c-90.4,16.437 -263.991,33.371 -429.85,-9.079c-41.012,-10.496 -75.975,-37.255 -96.45,-74.305c-18.704,-33.845 -23.854,-73.512 -14.487,-111.033c18.637,-74.658 52.846,-202.242 85.783,-275.637l-141.321,-75.346l100.225,-156.85c33.263,-52.046 86.867,-87.713 147.721,-98.284l172.558,-29.97" style="fill:#6b6fc7;fill-rule:nonzero;"/><path d="M1020.5,1055.45l15.625,-205.904l-236.408,-87.196l-183.979,-26.959c39.621,143.138 99.604,280.638 177.766,406.934c18.875,30.496 39.292,60.783 62.763,87.929l67.012,-198.417l97.221,23.613Z" style="fill:#5c418f;fill-rule:nonzero;"/><path d="M444.169,1196.16c-6.971,8.571 -11.167,19.496 -11.167,31.408c0,27.521 22.308,49.825 49.829,49.825c27.517,0 49.825,-22.304 49.825,-49.825c0,-25.979 -19.887,-47.291 -45.266,-49.596l-37.63,-139.925l-159.554,33.375l45.575,24.3c-32.933,73.396 -67.141,200.98 -85.783,275.638l162.521,-228.771l31.65,53.571Z" style="fill:#5c418f;fill-rule:nonzero;"/><path d="M740.427,895.939c-16.617,2.996 -35.658,3.559 -54.95,-0.254c-19.25,-3.733 -38.637,-11.8 -54.821,-24.125c-16.146,-12.367 -29.029,-28.954 -37.696,-46.542c-8.754,-17.608 -13.22,-36.129 -14.7,-52.95c-3.887,16.4 -3.491,37.096 3.567,57.546c6.9,20.409 20.425,40.459 39.079,54.713c18.659,14.246 41.563,22.025 63.071,23.312c21.579,1.425 41.654,-3.637 56.45,-11.7" style="fill:#5c418f;fill-rule:nonzero;"/><path d="M876.401,1099.35c-23.812,-1.675 -50.741,-4.008 -78.979,-8.354c-28.229,-4.3 -57.746,-10.583 -86.696,-18.933c-28.925,-8.417 -57.233,-18.884 -83.391,-30.342c-26.188,-11.417 -50.192,-23.842 -71.213,-35.154c16.392,17.3 37.963,34.987 63.383,50.262c25.375,15.321 54.534,28.196 84.909,37.025c30.391,8.775 61.916,13.48 91.554,14.092c29.65,0.679 57.333,-2.742 80.433,-8.596" style="fill:#5c418f;fill-rule:nonzero;"/><path d="M819.167,1207.66c-26.771,14.454 -57.975,30.175 -92.188,44.617c-34.179,14.487 -71.333,27.691 -109.242,38.279c-37.929,10.521 -76.562,18.404 -113.312,23.658c-36.754,5.309 -71.592,7.967 -101.979,9.421c30.221,3.308 65.591,4.238 103.162,1.229c37.567,-2.941 77.284,-9.812 115.963,-20.541c38.658,-10.792 76.212,-25.43 109.9,-42.313c33.721,-16.837 63.529,-35.904 87.696,-54.35" style="fill:#5c418f;fill-rule:nonzero;"/><path d="M716.243,1239.7c-30.775,1.321 -70.025,3.233 -109.279,1.954c-39.254,-1.079 -78.317,-5.346 -108.959,-8.517c28.067,12.613 68.013,22.063 108.521,23.154c40.504,1.346 80.942,-5.687 109.717,-16.591" style="fill:#5c418f;fill-rule:nonzero;"/><path d="M335.782,1095.72l-124.608,-66.554l-89.071,148.579l213.68,-82.025Z" style="fill:#ffa688;fill-rule:nonzero;"/><path d="M211.173,1029.17l124.608,66.554l-99.704,38.271l-34.387,-89.004l9.483,-15.821Z" style="fill:#47284f;fill-rule:nonzero;"/><path d="M362.664,1011.45l-7.829,-48.554l-220.329,200.967c-39.463,35.996 -39.638,98.058 -0.379,134.275c40.737,37.583 105.316,30.387 136.783,-15.246l127.6,-185.058l-2.271,-3.259c-17.283,-24.841 -28.758,-53.25 -33.575,-83.125" style="fill:#ffc09c;fill-rule:nonzero;"/><path d="M361.476,956.836l-6.641,6.059l7.829,48.554c4.816,29.875 16.291,58.287 33.575,83.129l2.271,3.258l34.495,-50.029l-71.529,-90.971Z" style="fill:#ffa688;fill-rule:nonzero;"/><path d="M449.76,1038.05l5.641,10.087c11.425,-15.321 34.459,-27.237 45.863,-30.05c-13.667,1.125 -21.492,2.05 -34.013,7.638c-6.516,2.908 -12.629,7.108 -17.491,12.325" style="fill:#aa9c96;fill-rule:nonzero;"/><path d="M441.337,1022.98l8.42,15.067c4.867,-5.217 10.975,-9.417 17.496,-12.325c12.521,-5.588 20.346,-6.513 34.009,-7.638l-10.621,-28.612c-32.638,9.55 -46.179,28.562 -49.304,33.508" style="fill:#d7d0bf;fill-rule:nonzero;"/><path d="M455.399,1048.14l16.833,30.104c4.796,-5.154 10.817,-9.258 17.325,-11.888c7.4,-2.987 19.209,-6.225 27.038,-6.954l-15.333,-41.312c-11.405,2.812 -34.438,14.729 -45.863,30.05" style="fill:#d7d0bf;fill-rule:nonzero;"/><path d="M472.23,1078.24l5.509,9.854c8.875,-12.6 24.729,-23.7 38.854,-28.691c-7.829,0.725 -19.638,3.966 -27.038,6.95c-6.504,2.629 -12.529,6.737 -17.325,11.887" style="fill:#aa9c96;fill-rule:nonzero;"/><path d="M441.337,1022.98c3.125,-4.946 16.666,-23.958 49.304,-33.508c-24.679,0.441 -47.938,11.65 -63.659,30.683l-1.616,1.958l16.483,27.934c1.842,-4.438 4.596,-8.446 7.908,-12l-8.42,-15.067Z" style="fill:#aa9c96;fill-rule:nonzero;"/><path d="M449.76,1038.05c-3.313,3.554 -6.067,7.558 -7.909,12l7.125,12.075c0.796,-4.859 3.125,-9.563 6.425,-13.988l-5.641,-10.087Z" style="fill:#aa9c96;fill-rule:nonzero;"/><path d="M471.673,1100.59l21.112,35.788l8.392,-6.363l-23.437,-41.921c-2.863,4.063 -4.955,8.275 -6.067,12.496" style="fill:#aa9c96;fill-rule:nonzero;"/><path d="M516.595,1059.4c-14.129,4.991 -29.983,16.091 -38.858,28.695l23.437,41.917l32.484,-24.637l-17.063,-45.975Z" style="fill:#d7d0bf;fill-rule:nonzero;"/><path d="M472.23,1078.24c-3.012,3.238 -5.487,6.904 -7.329,10.875l6.771,11.475c1.113,-4.216 3.204,-8.433 6.067,-12.496l-5.509,-9.854Z" style="fill:#aa9c96;fill-rule:nonzero;"/><path d="M455.399,1048.14c-3.3,4.425 -5.625,9.129 -6.425,13.987l15.929,26.992c1.838,-3.971 4.313,-7.638 7.329,-10.875l-16.833,-30.104Z" style="fill:#aa9c96;fill-rule:nonzero;"/><path d="M539.703,1177.75c-29.1,-0 -52.692,-23.592 -52.692,-52.692c0,-0.237 0.034,-0.471 0.038,-0.708c-4.754,7.916 -7.538,17.15 -7.538,27.054c0,29.1 23.592,52.692 52.692,52.692c28.858,-0 52.271,-23.213 52.654,-51.984c-9.212,15.338 -25.958,25.638 -45.154,25.638" style="fill:#d7d0bf;fill-rule:nonzero;"/><path d="M539.703,1177.75c19.196,-0 35.942,-10.3 45.154,-25.638c0.004,-0.237 0.038,-0.471 0.038,-0.708c-0,-29.1 -23.592,-52.692 -52.692,-52.692c-19.196,0 -35.942,10.3 -45.154,25.638c-0.004,0.237 -0.038,0.471 -0.038,0.708c0,29.1 23.592,52.692 52.692,52.692" style="fill:#e5e5e1;fill-rule:nonzero;"/><path d="M562.544,1127.58c-1.316,7.946 -14.291,12.413 -28.975,9.984c-14.687,-2.434 -25.525,-10.85 -24.208,-18.796c1.317,-7.946 14.292,-12.417 28.975,-9.984c14.687,2.434 25.525,10.85 24.208,18.796" style="fill:#fff;fill-rule:nonzero;"/><path d="M34.098,1.089l350.15,810.212l42.871,-16.141l-268.421,-664.017l-124.6,-130.054Z" style="fill:#988a86;fill-rule:nonzero;"/><path d="M34.098,1.089l-1.042,-1.088l-14.116,171.417l320.6,656.717l44.708,-16.834l-350.15,-810.212Z" style="fill:#aa9c96;fill-rule:nonzero;"/><path d="M33.054,0l-33.054,174.425l339.542,653.708l-320.6,-656.712l14.112,-171.421Z" style="fill:#fff;fill-rule:nonzero;"/><path d="M158.699,131.143l268.421,664.016l-257.779,-669.608l-135.334,-124.675l0.092,0.212l124.6,130.055Z" style="fill:#d7d0bf;fill-rule:nonzero;"/><path d="M453.271,685.692l-18.159,28.125c0.33,33.329 -16.491,67.537 -43.9,89.279c-26.675,21.167 -63.9,31.125 -99.6,26.658c-11.845,-1.483 -23.516,-4.479 -34.804,-8.804l9.009,-13.592l-49.48,-41.666l-37.412,21.7l-18.158,28.125c33.987,35.362 78.245,58.037 124.625,63.85c7.887,0.987 15.783,1.475 23.637,1.475c41.425,-0 81.713,-13.546 113.258,-38.575c39.825,-31.592 81.467,-107.921 80.98,-157.071l-49.996,0.496Z" style="fill:#aa9c96;fill-rule:nonzero;"/><path d="M327.189,852.718c-7.854,0 -15.75,-0.487 -23.638,-1.475c-46.383,-5.816 -90.641,-28.491 -124.625,-63.85l36.05,-34.65c26.075,27.134 59.738,44.492 94.792,48.888c35.7,4.467 72.929,-5.496 99.604,-26.658c27.408,-21.742 44.229,-55.955 43.9,-89.28l49.996,-0.5c0.487,49.155 -22.996,97.359 -62.821,128.95c-31.546,25.03 -71.837,38.575 -113.258,38.575" style="fill:#d7d0bf;fill-rule:nonzero;"/><path d="M473.679,831.266c12.313,-7.062 28.029,-1.708 33.467,11.404l17.033,41.088c4.542,10.958 -0.362,23.55 -11.121,28.546c-10.912,5.066 -23.879,0.483 -29.183,-10.313l-19.608,-39.921c-5.475,-11.145 -1.355,-24.625 9.412,-30.804" style="fill:#ffa688;fill-rule:nonzero;"/><path d="M339.33,856.962l43.663,-35.146c13.767,-11.079 32.992,-12.371 48.117,-3.229l25.729,15.55c7.954,4.808 14.075,12.142 17.383,20.829l45.429,119.254c3.117,8.175 1.729,17.384 -3.654,24.284l-14.733,19.583l-10.621,-28.612c-24.683,0.441 -47.938,11.65 -63.658,30.683l-1.621,1.958l16.491,27.95l-29.75,-6.612c-18.125,-3.775 -33.066,-16.55 -39.616,-33.867l-43.438,-114.867c-5.096,-13.487 -0.95,-28.72 10.279,-37.758" style="fill:#ffc09c;fill-rule:nonzero;"/><path d="M514.341,960.275l-52.188,-14.563c-7.658,-2.137 -15.871,0.013 -21.504,5.625l-28.129,28.071l20.721,-31.688c8.683,-13.27 26.121,-17.629 40.025,-9.995l41.075,22.55Z" style="fill:#ffa688;fill-rule:nonzero;"/><path d="M503.273,931.226l-52.775,-26.017c-11.054,-5.454 -24.433,-1.996 -31.463,8.125l-19.366,27.875l13.45,-30.716c7.554,-17.25 29.096,-23.155 44.391,-12.163l45.763,32.896Z" style="fill:#ffa688;fill-rule:nonzero;"/><path d="M485.117,883.561l-40.379,-25.571c-11.083,-7.012 -25.65,-4.725 -34.038,5.359l-19.708,23.696l16.392,-30.338c7.162,-13.254 24.633,-16.692 36.283,-7.137l41.45,33.991Z" style="fill:#ffa688;fill-rule:nonzero;"/><path d="M692.37,760.828c19.404,15.242 44.112,23.592 68.783,23.246c11.654,-0.167 23.242,-2.334 34.25,-6.171l16.071,-57.875l-164.583,-36.033l-3,4.825c10.9,27.57 25.408,53.887 48.479,72.008" style="fill:#47284f;fill-rule:nonzero;"/><path d="M761.155,784.072c-24.671,0.346 -49.38,-8.004 -68.784,-23.246c-23.071,-18.121 -37.579,-44.433 -48.483,-72.008l-28.921,46.458c-14.312,22.984 -16.058,51.638 -4.65,76.192l0.004,-0c17.609,37.9 57.392,61.471 98.867,56.333c39.033,-4.833 70.279,-32.541 80.467,-69.216l5.745,-20.68c-11.004,3.834 -22.591,6 -34.245,6.167" style="fill:#ffc09c;fill-rule:nonzero;"/><path d="M588.212,643.295l-74.796,-157.509c-15.4,-32.421 0.025,-70.946 33.429,-84.083c68.225,-26.833 129.013,-88.825 180.438,-140.279c6.029,-6.029 12.062,-12.292 19.62,-16.229c7.559,-3.938 17.096,-5.192 24.492,-0.955c8.471,4.85 11.967,15.709 10.925,25.413c-1.042,9.704 -5.746,18.579 -10.367,27.179c9.846,-3.792 22.884,-10.025 30.9,-16.883c10.238,-8.763 20.909,-17.684 34.88,-19.554c5.7,-0.763 11.633,0.008 16.708,2.72c16.304,8.717 15.196,29.45 10.042,45.555c-10.05,31.387 -31.109,59.125 -58.638,77.241l-157.217,41.759l12.5,80.208l-39.333,40.625l-1.437,94.792l-32.146,-0Z" style="fill:#793348;fill-rule:nonzero;"/><path d="M898.628,567.149l-26.041,-104.583c-9.213,-39.879 -33.679,-72.258 -65.813,-92.421c-61.358,2.967 -122.054,19.513 -176.279,48.392c6.917,21.487 13.358,45.129 9.979,67.45c-3.142,20.791 -15.704,39.966 -33.508,51.154l-2.288,79.417l4.359,17.508c18.479,79.967 98.283,129.817 178.254,111.337c79.971,-18.479 129.816,-98.287 111.337,-178.254" style="fill:#ffc09c;fill-rule:nonzero;"/><path d="M706.789,730.471c-40.225,-4.338 -78.146,-22.467 -106.784,-51.042l8.83,-8.85c26.629,26.575 61.891,43.429 99.295,47.467l-1.341,12.425Z" style="fill:#c4d3d8;fill-rule:nonzero;"/><path d="M662.314,640.43c-27.854,-12.683 -57.429,-14.754 -93.204,-16.142l0.483,-12.491c29.225,1.133 65.596,2.546 97.9,17.258l-5.179,11.375Z" style="fill:#c4d3d8;fill-rule:nonzero;"/><path d="M693.967,702.826c-8.275,-23.041 -15.542,-47.421 -20.958,-70.196c25.933,-8.483 46.612,-28.104 61.204,-41.95c16.479,-15.641 36.992,-35.108 59.667,-37.766c1.945,-0.229 4,-0.346 6.1,-0.346c11.362,-0 23.337,3.267 36.016,6.725l5.013,1.358c11.575,3.109 25.275,6.279 39.141,6.279c1.992,0 3.955,-0.062 5.892,-0.195c5.413,-0.371 10.983,-1.825 16.192,-3.967l-3.388,-15.25c-17.254,5.546 -36.012,1.733 -53.516,-2.963c-17.509,-4.695 -35.388,-10.304 -53.388,-8.195c-27.342,3.204 -49.237,23.283 -69.204,42.233c-19.963,18.946 -42.217,38.787 -69.629,41.292c5.875,28.629 15.021,60.325 25.204,88.666c11.971,33.309 46.017,52.471 79.992,46.638c-37.184,-9.696 -57.6,-33.596 -64.338,-52.363" style="fill:#fff;fill-rule:nonzero;"/><path d="M902.235,562.769c-5.208,2.141 -10.779,3.596 -16.195,3.966c-1.938,0.13 -3.9,0.196 -5.892,0.196c-13.863,0 -27.567,-3.175 -39.138,-6.279l-5.012,-1.358c-12.679,-3.459 -24.654,-6.725 -36.021,-6.725c-2.096,-0 -4.15,0.116 -6.1,0.346c-22.675,2.654 -43.183,22.12 -59.667,37.766c-14.591,13.846 -35.266,33.467 -61.2,41.95c5.417,22.771 12.68,47.15 20.959,70.196c6.737,18.767 27.15,42.667 64.337,52.363c3.142,-0.542 6.288,-1.217 9.409,-2.192l51.087,-15.983c64.575,-20.209 102.925,-86.496 88.254,-152.55l-4.821,-21.696Z" style="fill:#3fd4d0;fill-rule:nonzero;"/><path d="M688.987,468.911c-17.192,6.454 -29.196,20.771 -33.888,37.671l84.196,-31.604c-14.654,-9.638 -33.117,-12.521 -50.308,-6.067" style="fill:#793348;fill-rule:nonzero;"/><path d="M840.228,442.165c14.358,0.45 26.787,10.034 34.421,24.45l-70.304,-2.208c8.52,-13.908 21.529,-22.692 35.883,-22.242" style="fill:#793348;fill-rule:nonzero;"/><path d="M734.741,529.926c-0,7 -5.675,12.675 -12.675,12.675c-7,-0 -12.671,-5.675 -12.671,-12.675c0,-7 5.671,-12.675 12.671,-12.675c7,-0 12.675,5.675 12.675,12.675" style="fill:#47284f;fill-rule:nonzero;"/><path d="M857.645,504.11c0.325,6.992 -3.992,12.871 -9.646,13.133c-5.65,0.263 -10.491,-5.191 -10.817,-12.183c-0.325,-6.996 3.992,-12.875 9.646,-13.137c5.65,-0.259 10.492,5.195 10.817,12.187" style="fill:#47284f;fill-rule:nonzero;"/><path d="M621.795,655.194c0,27.613 -22.387,50 -50,50c-27.617,0 -50,-22.387 -50,-50c0,-27.612 22.383,-50 50,-50c27.613,0 50,22.388 50,50" style="fill:#ffc09c;fill-rule:nonzero;"/><path d="M600.595,655.194c0,15.904 -12.895,28.8 -28.8,28.8c-15.908,0 -28.804,-12.896 -28.804,-28.8c0,-15.908 12.896,-28.804 28.804,-28.804c15.905,0 28.8,12.896 28.8,28.804" style="fill:#ffa688;fill-rule:nonzero;"/><path d="M521.587,491.492c-12.733,-35.3 6.059,-73.729 41.384,-86.387c22.237,-7.971 43.283,-19.55 62.441,-33.834c37.938,-28.279 68.871,-64.746 99.05,-101.191c7.8,-9.417 15.746,-19.013 26.03,-25.63c1.025,-0.658 2.1,-1.258 3.183,-1.85c-2.35,0.621 -4.642,1.488 -6.771,2.596c-7.558,3.938 -13.596,10.196 -19.621,16.225c-51.425,51.454 -112.212,113.446 -180.437,140.284c-33.404,13.137 -48.829,51.658 -33.429,84.083l25.429,53.55l-17.259,-47.846Z" style="fill:#9f5a61;fill-rule:nonzero;"/><path d="M886.879,775.586l-39.171,-3.212c-15.358,-1.259 -29.313,8.946 -32.771,23.962l-19.537,84.804l11.741,1.305c25.1,2.787 48.084,-14.3 52.65,-39.142l4.117,-22.417l22.971,-45.3Z" style="fill:#ff8983;fill-rule:nonzero;"/><path d="M851.692,850.24l-12.667,-25.512c-4.75,-9.567 -2.295,-21.15 5.93,-27.967l35.758,-29.658c13.583,-11.267 31.596,-15.658 48.842,-11.904l76.887,16.741l46.354,145.313l-74.85,67.592c-7.121,6.429 -16.433,9.883 -26.025,9.65l-25.987,-0.625c-11.538,-0.284 -21.834,-7.313 -26.292,-17.959l-6.75,-16.121l-5.333,-1.112c-10.8,-2.254 -18.975,-11.125 -20.334,-22.071l-3.316,-26.646c-9.538,-0.633 -17.85,-6.725 -21.329,-15.625l-4.534,-11.604c-4.175,-10.675 -0.441,-22.817 9,-29.3l4.646,-3.192Z" style="fill:#ffa688;fill-rule:nonzero;"/><path d="M851.692,850.24l70.375,-55.641l-22.883,10.612c-18.025,8.363 -33.2,21.842 -43.629,38.763l-3.863,6.266Z" style="fill:#ff8983;fill-rule:nonzero;"/><path d="M863.907,909.961l98.613,-22.571l-22.333,11.259c-19.625,9.896 -41.605,14.175 -63.509,12.366l-12.771,-1.054Z" style="fill:#ff8983;fill-rule:nonzero;"/><path d="M892.893,959.79l69.625,0l-11.588,3.23c-18.737,5.229 -38.666,4.262 -56.816,-2.759l-1.221,-0.471Z" style="fill:#ff8983;fill-rule:nonzero;"/><path d="M974.228,995.341c59.379,163.146 178.292,289.129 308.084,326.409l98.737,28.362l64.646,-23.529l-17.113,-47.013l9.875,-14.654c75.463,-111.987 85.575,-284.929 26.192,-448.075l-141.162,-387.837l-490.421,178.496l141.162,387.841Z" style="fill:#9b2972;fill-rule:nonzero;"/><path d="M1180.19,329.692l-85.95,31.283l-64.646,23.529l-150.596,54.813c26.887,73.866 6.321,149.162 -45.933,168.183l490.42,-178.5c-52.254,19.021 -116.412,-25.442 -143.295,-99.308" style="fill:#d83472;fill-rule:nonzero;"/><path d="M1244.84,306.163l-301.192,109.625c26.888,73.866 6.321,149.162 -45.933,168.183l141.162,387.837c59.38,163.15 178.288,289.134 308.084,326.413l98.737,28.362l57.404,-85.196c75.467,-111.983 85.575,-284.929 26.196,-448.075l-141.162,-387.841c-52.255,19.021 -116.413,-25.442 -143.296,-99.309" style="fill:#ff406a;fill-rule:nonzero;"/><path d="M1457.96,819.275l-128.212,-352.258c-51.654,-2.488 -102.721,-36.73 -135.804,-91.842l-193.704,70.5c10.079,63.487 -7.03,122.542 -44.996,157.65l128.208,352.262c53.729,147.613 162.296,264.2 276.6,297.03l48.663,13.979l28.287,-41.988c66.458,-98.62 74.688,-257.716 20.958,-405.333" style="fill:#d83472;fill-rule:nonzero;"/><path d="M1220.69,365.438l-26.75,9.737c33.087,55.113 84.15,89.355 135.804,91.842l26.75,-9.737c-51.654,-2.488 -102.721,-36.725 -135.804,-91.842" style="fill:#9b2972;fill-rule:nonzero;"/><path d="M1457.96,819.275c53.73,147.617 45.5,306.713 -20.958,405.333l-28.287,41.988l16.912,4.858l38.125,-56.583c66.458,-98.621 74.684,-257.717 20.958,-405.329l-128.216,-352.259l-26.746,9.734l128.212,352.258Z" style="fill:#9b2972;fill-rule:nonzero;"/><path d="M1352.8,706.683l-76.517,27.85l-37.325,-102.55l-89.171,32.45l37.33,102.554l-76.517,27.85l32.45,89.167l76.521,-27.85l37.325,102.554l89.167,-32.454l-37.325,-102.554l76.516,-27.854l-32.454,-89.163Z" style="fill:#c4d3d8;fill-rule:nonzero;"/><path d="M1377.65,697.638l-76.521,27.854l-37.325,-102.554l-89.166,32.45l37.325,102.554l-76.517,27.85l32.454,89.167l76.517,-27.85l37.325,102.554l89.167,-32.454l-37.325,-102.554l76.516,-27.85l-32.45,-89.167Z" style="fill:#fff;fill-rule:nonzero;"/></g></g></svg>